<svg xmlns="http://www.w3.org/2000/svg" xmlns:xlink="http://www.w3.org/1999/xlink" width="800" zoomAndPan="magnify" viewBox="0 0 600 599.999999" height="800" preserveAspectRatio="xMidYMid meet" version="1.0"><path fill="#ffffff" d="M 299.980469 0.675781 C 464.835938 0.675781 599.28125 135.125 599.28125 299.980469 C 599.28125 464.832031 464.835938 599.285156 299.980469 599.285156 C 135.125 599.285156 0.675781 464.835938 0.675781 299.980469 C 0.675781 135.125 135.125 0.675781 299.980469 0.675781 " fill-opacity="1" fill-rule="nonzero"/><path stroke-linecap="butt" transform="matrix(0.563028, 0, 0, -0.563028, 0.0000003, 599.962434)" fill="none" stroke-linejoin="miter" d="M 532.798649 1064.399696 C 825.600283 1064.399696 1064.390099 825.602942 1064.390099 532.801309 C 1064.390099 240.006613 825.600283 1.202921 532.798649 1.202921 C 239.997016 1.202921 1.200262 239.999675 1.200262 532.801309 C 1.200262 825.602942 239.997016 1064.399696 532.798649 1064.399696 Z M 532.798649 1064.399696 " stroke="#231f20" stroke-width="2.4" stroke-opacity="1" stroke-miterlimit="2.613"/><path fill="#cc0100" d="M 299.980469 10.640625 C 459.261719 10.640625 589.320312 140.699219 589.320312 299.980469 C 589.320312 459.261719 459.261719 589.316406 299.980469 589.316406 C 140.699219 589.316406 10.640625 459.257812 10.640625 299.980469 C 10.640625 140.707031 140.699219 10.640625 299.980469 10.640625 " fill-opacity="1" fill-rule="nonzero"/><path stroke-linecap="butt" transform="matrix(0.563028, 0, 0, -0.563028, 0.0000003, 599.962434)" fill="none" stroke-linejoin="miter" d="M 532.798649 1046.701026 C 815.699851 1046.701026 1046.698367 815.70251 1046.698367 532.801309 C 1046.698367 249.900107 815.699851 18.908529 532.798649 18.908529 C 249.897448 18.908529 18.898932 249.907045 18.898932 532.801309 C 18.898932 815.688634 249.897448 1046.701026 532.798649 1046.701026 Z M 532.798649 1046.701026 " stroke="#ed1c24" stroke-width="2.4" stroke-opacity="1" stroke-miterlimit="2.613"/><path fill="#ffffff" d="M 299.980469 84.117188 C 418.898438 84.117188 515.847656 181.070312 515.847656 299.980469 C 515.847656 418.894531 418.898438 515.847656 299.980469 515.847656 C 181.070312 515.847656 84.117188 418.894531 84.117188 299.980469 C 84.117188 181.070312 181.070312 84.117188 299.980469 84.117188 " fill-opacity="1" fill-rule="nonzero"/><path stroke-linecap="butt" transform="matrix(0.563028, 0, 0, -0.563028, 0.0000003, 599.962434)" fill="none" stroke-linejoin="miter" d="M 532.798649 916.198485 C 744.010177 916.198485 916.202764 743.998961 916.202764 532.801309 C 916.202764 321.596718 744.010177 149.397194 532.798649 149.397194 C 321.600997 149.397194 149.401473 321.596718 149.401473 532.801309 C 149.401473 743.998961 321.600997 916.198485 532.798649 916.198485 Z M 532.798649 916.198485 " stroke="#ed1c24" stroke-width="2.4" stroke-opacity="1" stroke-miterlimit="2.613"/><path fill="#231f20" d="M 169.078125 337.816406 L 429.871094 337.816406 C 435.445312 337.816406 439.5 341.363281 439.5 346.261719 L 439.5 346.429688 C 439.5 351.328125 435.445312 354.878906 429.871094 354.878906 L 169.078125 354.878906 C 163.5 354.878906 159.449219 351.328125 159.449219 346.429688 L 159.449219 346.261719 C 159.449219 341.363281 163.5 337.816406 169.078125 337.816406 " fill-opacity="1" fill-rule="nonzero"/><path stroke-linecap="butt" transform="matrix(0.563028, 0, 0, -0.563028, 0.0000003, 599.962434)" fill="none" stroke-linejoin="miter" d="M 300.301539 465.600479 L 763.498834 465.600479 C 773.399266 465.600479 780.600842 459.300835 780.600842 450.600665 L 780.600842 450.302334 C 780.600842 441.602165 773.399266 435.295583 763.498834 435.295583 L 300.301539 435.295583 C 290.39417 435.295583 283.199532 441.602165 283.199532 450.302334 L 283.199532 450.600665 C 283.199532 459.300835 290.39417 465.600479 300.301539 465.600479 Z M 300.301539 465.600479 " stroke="#231f20" stroke-width="2.4" stroke-opacity="1" stroke-miterlimit="2.613"/><path fill="#231f20" d="M 173.636719 359.945312 L 219.074219 359.945312 L 219.074219 388.65625 C 219.074219 392.710938 214.175781 396.089844 211.640625 395.75 L 181.070312 395.75 C 177.355469 395.414062 173.636719 392.035156 173.636719 387.644531 L 173.636719 359.945312 " fill-opacity="1" fill-rule="nonzero"/><path stroke-linecap="butt" transform="matrix(0.563028, 0, 0, -0.563028, 0.0000003, 599.962434)" fill="none" stroke-linejoin="miter" d="M 308.398109 426.297082 L 389.100158 426.297082 L 389.100158 375.303266 C 389.100158 368.101691 380.399989 362.100378 375.89727 362.703978 L 321.600997 362.703978 C 315.003022 363.30064 308.398109 369.301953 308.398109 377.100191 Z M 308.398109 426.297082 " stroke="#231f20" stroke-width="2.4" stroke-opacity="1" stroke-miterlimit="2.613"/><path fill="#231f20" d="M 382.070312 359.945312 L 427.507812 359.945312 L 427.507812 388.65625 C 427.507812 392.710938 422.609375 396.089844 420.078125 395.75 L 389.503906 395.75 C 385.785156 395.414062 382.070312 392.035156 382.070312 387.644531 L 382.070312 359.945312 " fill-opacity="1" fill-rule="nonzero"/><path stroke-linecap="butt" transform="matrix(0.563028, 0, 0, -0.563028, 0.0000003, 599.962434)" fill="none" stroke-linejoin="miter" d="M 678.599335 426.297082 L 759.301384 426.297082 L 759.301384 375.303266 C 759.301384 368.101691 750.601215 362.100378 746.105434 362.703978 L 691.802223 362.703978 C 685.19731 363.30064 678.599335 369.301953 678.599335 377.100191 Z M 678.599335 426.297082 " stroke="#231f20" stroke-width="2.4" stroke-opacity="1" stroke-miterlimit="2.613"/><path fill="#231f20" d="M 199.480469 269.070312 L 184.785156 271.433594 L 209.785156 214.007812 C 215.695312 206.070312 220.089844 203.535156 229.210938 201.675781 C 253.363281 200.664062 275.152344 199.648438 298.628906 199.648438 C 322.277344 199.648438 344.40625 200.664062 368.222656 202.183594 C 378.867188 204.546875 381.570312 206.070312 386.464844 213.5 L 416.191406 271.941406 L 398.625 268.566406 L 378.867188 228.871094 C 374.300781 222.621094 372.105469 219.75 363.492188 217.554688 C 341.707031 216.878906 320.925781 214.175781 299.476562 214.175781 C 278.027344 214.175781 256.070312 216.371094 234.445312 217.554688 C 226.507812 218.90625 223.132812 221.605469 217.554688 228.363281 L 199.480469 269.070312 " fill-opacity="1" fill-rule="nonzero"/><path stroke-linecap="butt" transform="matrix(0.563028, 0, 0, -0.563028, 0.0000003, 599.962434)" fill="none" stroke-linejoin="miter" d="M 354.299481 587.701181 L 328.198973 583.503731 L 372.601751 685.4983 C 383.098845 699.596183 390.904021 704.098902 407.104097 707.401358 C 450.001344 709.198283 488.70114 711.002146 530.398124 711.002146 C 572.400377 711.002146 611.703774 709.198283 654.004358 706.499427 C 672.910229 702.301977 677.711279 699.596183 686.404511 686.400232 L 739.202189 582.6018 L 708.002299 588.596175 L 672.910229 659.099461 C 664.799784 670.200156 660.900665 675.299537 645.60252 679.198656 C 606.909662 680.398919 569.999852 685.199969 531.903656 685.199969 C 493.80746 685.199969 454.809332 681.30085 416.400929 679.198656 C 402.303047 676.798131 396.308672 672.004019 386.401302 660.001393 Z M 354.299481 587.701181 " stroke="#231f20" stroke-width="2.4" stroke-opacity="1" stroke-miterlimit="2.613"/><path fill="#231f20" d="M 410.617188 283.765625 C 421.933594 283.765625 431.226562 293.054688 431.226562 304.539062 C 431.226562 316.023438 421.933594 325.316406 410.617188 325.316406 C 399.296875 325.316406 390.011719 316.027344 390.011719 304.539062 C 390.011719 293.050781 399.296875 283.765625 410.617188 283.765625 Z M 405.214844 332.410156 L 191.878906 332.410156 C 151.507812 331.226562 151.507812 279.542969 191.203125 276.164062 C 227.855469 271.433594 260.625 270.589844 301.667969 270.589844 C 342.714844 270.589844 372.101562 270.589844 408.417969 276.164062 C 449.632812 280.894531 448.621094 332.410156 405.210938 332.410156 Z M 189.519531 284.441406 C 200.835938 284.441406 210.125 293.730469 210.125 305.214844 C 210.125 316.699219 200.835938 325.992188 189.519531 325.992188 C 178.199219 325.992188 168.910156 316.703125 168.910156 305.214844 C 168.910156 293.730469 178.199219 284.441406 189.519531 284.441406 " fill-opacity="1" fill-rule="nonzero"/><path stroke-linecap="butt" transform="matrix(0.563028, 0, 0, -0.563028, 0.0000003, 599.962434)" fill="none" stroke-linejoin="miter" d="M 729.301757 561.600673 C 749.400952 561.600673 765.906298 545.102266 765.906298 524.704739 C 765.906298 504.307213 749.400952 487.801868 729.301757 487.801868 C 709.195624 487.801868 692.704155 504.300275 692.704155 524.704739 C 692.704155 545.109204 709.195624 561.600673 729.301757 561.600673 Z M 719.706594 475.20258 L 340.798261 475.20258 C 269.094712 477.304774 269.094712 569.10058 339.597998 575.101893 C 404.696634 583.503731 462.898963 585.002325 535.795837 585.002325 C 608.699649 585.002325 660.893727 585.002325 725.3957 575.101893 C 798.597843 566.700055 796.800918 475.20258 719.699656 475.20258 Z M 336.607749 560.40041 C 356.706944 560.40041 373.205351 543.902003 373.205351 523.504477 C 373.205351 503.106951 356.706944 486.601605 336.607749 486.601605 C 316.501616 486.601605 300.003208 503.100013 300.003208 523.504477 C 300.003208 543.902003 316.501616 560.40041 336.607749 560.40041 Z M 336.607749 560.40041 " stroke="#231f20" stroke-width="2.4" stroke-opacity="1" stroke-miterlimit="2.613"/></svg>